# xmcd
#
# Track frame offsets:
# 150
# 1193
# 19128
# 37087
# 57602
# 73229
# 91954
# 110958
# 134152
# 154147
# 179118
# 203099
# 224300
# 245526
# 270446
# 291634
# 313469
# 336634
# 362113
# 381422
#
# Disc length: 5267 seconds
#
#
# Revision: 1
# Processed by: cddbd v1.5.2PL0 Copyright (c) Steve Scherf et al.
# Submitted via: FreeRIP 2.96 
#
DISCID=5b149114
DTITLE=Agatha Christie - Weihnachten mit Hercule Poirot und Miss Marple CD01
DYEAR=2010
DGENRE=Hörbuch
TTITLE0=Hercule Poirot und der Plumpudding 01
TTITLE1=Hercule Poirot und der Plumpudding 02
TTITLE2=Hercule Poirot und der Plumpudding 03
TTITLE3=Hercule Poirot und der Plumpudding 04
TTITLE4=Hercule Poirot und der Plumpudding 05
TTITLE5=Hercule Poirot und der Plumpudding 06
TTITLE6=Hercule Poirot und der Plumpudding 07
TTITLE7=Hercule Poirot und der Plumpudding 08
TTITLE8=Hercule Poirot und der Plumpudding 09
TTITLE9=Hercule Poirot und der Plumpudding 10
TTITLE10=Hercule Poirot und der Plumpudding 11
TTITLE11=Hercule Poirot und der Plumpudding 12
TTITLE12=Hercule Poirot und der Plumpudding 13
TTITLE13=Hercule Poirot und der Plumpudding 14
TTITLE14=Hercule Poirot und der Plumpudding 15
TTITLE15=Hercule Poirot und der Plumpudding 16
TTITLE16=Hercule Poirot und der Plumpudding 17
TTITLE17=Hercule Poirot und der Plumpudding 18
TTITLE18=Hercule Poirot und der Plumpudding 19
TTITLE19=Hercule Poirot und der Plumpudding 20
EXTD=YEAR: 2010
EXTT0=
EXTT1=
EXTT2=
EXTT3=
EXTT4=
EXTT5=
EXTT6=
EXTT7=
EXTT8=
EXTT9=
EXTT10=
EXTT11=
EXTT12=
EXTT13=
EXTT14=
EXTT15=
EXTT16=
EXTT17=
EXTT18=
EXTT19=
PLAYORDER=
